<?xml version="1.0" standalone="no"?>
<!DOCTYPE svg PUBLIC "-//W3C//DTD SVG 20010904//EN"
 "http://www.w3.org/TR/2001/REC-SVG-20010904/DTD/svg10.dtd">
<svg version="1.0" xmlns="http://www.w3.org/2000/svg"
 width="890.000000pt" height="890.000000pt" viewBox="0 0 890.000000 890.000000"
 preserveAspectRatio="xMidYMid meet">
<metadata>
Created by potrace 1.14, written by Peter Selinger 2001-2017
</metadata>
<g transform="translate(0.000000,890.000000) scale(0.100000,-0.100000)"
fill="#000000" stroke="none">
<path d="M6064 8704 c3 -7 -6 -11 -24 -12 -45 -1 -107 -40 -92 -58 4 -5 -2 -2
-13 6 -11 8 -17 11 -13 6 8 -10 -15 -36 -32 -36 -6 0 -20 -9 -32 -20 -12 -10
-25 -17 -29 -14 -5 3 -6 -3 -2 -12 4 -11 3 -15 -4 -11 -6 4 -19 0 -27 -9 -9
-8 -16 -12 -16 -8 0 4 -7 -1 -15 -12 -8 -10 -15 -15 -15 -10 0 5 -12 -4 -26
-20 -15 -16 -23 -22 -18 -14 7 13 6 13 -12 0 -10 -8 -27 -23 -37 -35 -10 -11
-16 -13 -12 -5 4 10 2 9 -8 -2 -8 -10 -17 -15 -20 -11 -4 3 -7 1 -7 -5 0 -6
-9 -14 -20 -17 -11 -4 -17 -11 -14 -17 5 -7 2 -9 -8 -6 -8 4 -20 -2 -26 -13
-7 -10 -17 -19 -23 -19 -5 0 -19 -9 -31 -20 -12 -10 -25 -17 -30 -14 -4 3 -8
0 -8 -6 0 -6 -12 -15 -26 -20 -15 -6 -22 -14 -18 -22 4 -7 3 -8 -4 -4 -6 4
-22 0 -35 -9 -13 -8 -27 -12 -32 -8 -4 5 -5 2 -1 -4 7 -13 -5 -17 -33 -13 -8
1 -12 -4 -8 -14 4 -11 1 -13 -10 -9 -12 5 -14 3 -8 -8 8 -12 6 -12 -8 0 -11 9
-17 10 -17 2 0 -6 -11 -11 -24 -11 -14 0 -27 -4 -31 -9 -3 -6 -23 -9 -45 -8
-22 2 -42 -2 -44 -8 -3 -6 -8 -5 -14 4 -8 11 -10 11 -15 0 -4 -12 -7 -11 -16
1 -6 8 -11 10 -11 4 0 -7 -15 -9 -45 -4 -25 4 -45 4 -45 1 0 -3 -4 0 -8 7 -5
7 -22 14 -39 15 -17 1 -29 6 -25 11 3 5 -4 7 -16 4 -15 -4 -19 -2 -15 8 4 10
-3 14 -23 15 -16 1 -33 0 -39 -1 -5 -1 -17 -2 -27 -3 -15 -1 -32 -30 -29 -49
1 -5 -4 -8 -10 -8 -6 0 -8 -7 -5 -15 3 -9 0 -18 -8 -21 -7 -3 -13 -11 -14 -19
-1 -8 -3 -22 -4 -30 -1 -8 -4 -15 -8 -15 -3 0 -6 -10 -7 -22 -1 -11 -6 -24
-10 -27 -4 -3 -8 -26 -9 -51 -1 -27 -5 -44 -12 -43 -6 2 -9 -3 -6 -11 4 -11
-4 -13 -38 -11 -24 2 -49 -2 -57 -8 -8 -7 -12 -7 -9 -2 4 7 -32 10 -103 10
-60 0 -109 -4 -109 -9 0 -5 -8 -2 -17 5 -14 12 -16 12 -8 0 6 -11 5 -12 -6 -5
-19 12 -92 12 -101 -1 -5 -7 -8 -6 -8 1 0 6 -10 10 -22 9 -14 -2 -22 -8 -20
-16 2 -11 -1 -11 -10 1 -7 8 -20 15 -28 15 -8 0 -17 11 -20 25 -3 14 -13 40
-23 58 -10 17 -14 32 -10 32 5 0 -1 7 -11 15 -13 10 -15 15 -6 15 8 0 5 7 -8
19 -12 10 -19 21 -16 24 4 3 -5 16 -18 29 -14 13 -23 29 -20 37 3 10 0 12 -11
8 -10 -4 -14 -2 -11 7 3 8 -8 13 -36 14 -29 2 -42 -2 -46 -13 -5 -13 -9 -13
-22 -3 -11 9 -14 9 -9 1 5 -7 -1 -16 -13 -23 -11 -6 -20 -7 -20 -3 0 4 -7 -1
-15 -11 -11 -14 -15 -16 -15 -5 0 11 -2 11 -9 1 -7 -12 -27 -19 -59 -21 -7 -1
-11 -5 -8 -10 3 -4 -12 -8 -34 -7 -22 1 -40 -2 -40 -7 0 -5 -8 -3 -17 4 -9 8
-14 9 -10 3 4 -7 0 -14 -8 -18 -8 -3 -15 -1 -15 5 0 6 -5 7 -11 3 -6 -3 -15 0
-20 7 -6 10 -9 10 -9 2 0 -9 -7 -10 -22 -4 -13 4 -31 7 -41 5 -9 -1 -15 2 -11
7 3 5 -7 9 -21 9 -15 0 -33 6 -41 14 -7 8 -25 13 -38 12 -14 -2 -24 2 -23 7 1
6 -2 12 -8 13 -28 5 -55 17 -55 25 0 5 -9 9 -20 9 -11 0 -23 7 -26 15 -4 8
-10 12 -15 9 -5 -3 -9 0 -9 5 0 6 -7 11 -16 11 -8 0 -12 5 -9 10 3 6 -3 10
-14 10 -12 0 -21 5 -21 10 0 6 -7 10 -16 10 -9 0 -12 5 -8 12 4 6 3 8 -4 4 -6
-3 -17 1 -26 10 -9 8 -21 12 -28 8 -8 -5 -9 -2 -5 10 4 9 3 15 -2 11 -5 -3
-16 2 -24 10 -9 8 -20 15 -26 15 -6 0 -11 5 -11 11 0 5 -5 7 -10 4 -6 -3 -14
4 -19 17 -6 13 -10 17 -11 8 0 -12 -3 -11 -11 3 -5 9 -17 17 -24 17 -8 0 -15
5 -15 12 0 6 -3 9 -6 5 -3 -3 -16 4 -29 15 -13 11 -25 18 -27 17 -2 -2 -14 6
-28 19 -13 12 -31 20 -39 17 -11 -5 -12 -3 -1 10 11 13 10 15 -1 10 -8 -3 -25
4 -37 15 -12 11 -22 18 -22 14 0 -3 -6 -2 -13 4 -16 13 -90 8 -95 -7 -2 -6 -7
-9 -12 -6 -5 3 -11 -4 -15 -15 -4 -11 -11 -18 -16 -15 -5 4 -9 1 -9 -5 0 -6
-3 -9 -7 -7 -9 5 -63 -50 -56 -56 2 -3 -5 -8 -16 -12 -12 -3 -19 -11 -15 -16
3 -6 -3 -13 -15 -16 -11 -3 -18 -9 -15 -14 3 -5 0 -9 -6 -9 -6 0 -9 -4 -6 -9
3 -5 -1 -12 -10 -15 -8 -3 -14 -14 -12 -23 2 -10 -1 -17 -7 -17 -5 1 -21 -12
-35 -29 -14 -17 -18 -28 -10 -23 13 7 13 6 0 -6 -22 -20 -51 -78 -44 -89 3 -5
-2 -9 -10 -9 -9 0 -13 -7 -11 -19 2 -11 -3 -22 -12 -25 -9 -4 -13 -9 -10 -13
3 -3 0 -18 -9 -34 -8 -16 -12 -29 -10 -29 3 0 -1 -12 -9 -27 -8 -15 -12 -30
-9 -35 3 -5 0 -15 -6 -23 -6 -8 -9 -19 -6 -24 4 -5 2 -13 -4 -16 -8 -5 -7 -11
1 -21 7 -9 8 -14 1 -14 -6 0 -9 -12 -8 -27 2 -16 1 -32 -2 -38 -12 -19 -11
-70 1 -77 8 -5 8 -8 1 -8 -12 0 -12 -29 1 -49 5 -10 4 -12 -3 -7 -7 4 -12 2
-12 -3 0 -6 5 -11 10 -11 17 0 11 -41 -10 -67 -11 -14 -20 -23 -20 -19 0 4
-13 -1 -29 -10 -17 -10 -27 -22 -24 -27 4 -6 1 -7 -6 -2 -7 4 -22 -2 -36 -15
-14 -13 -29 -19 -36 -15 -7 5 -10 4 -5 -3 3 -6 -3 -14 -15 -17 -12 -4 -39 -23
-60 -42 -21 -19 -43 -32 -49 -28 -6 4 -9 2 -8 -3 2 -6 -1 -10 -5 -11 -4 0 -17
-10 -27 -23 -11 -13 -19 -20 -20 -16 0 4 -16 -9 -36 -28 -20 -19 -41 -34 -46
-34 -5 0 -6 -4 -3 -10 3 -5 -3 -10 -15 -10 -12 0 -18 -4 -15 -10 3 -5 1 -10
-5 -10 -14 0 -176 -162 -172 -173 1 -5 -2 -6 -7 -2 -6 3 -15 -5 -22 -17 -7
-13 -19 -29 -28 -36 -13 -11 -13 -12 -1 -7 9 4 7 0 -4 -9 -10 -8 -15 -19 -11
-25 4 -7 0 -8 -10 -5 -9 4 -15 3 -14 -2 4 -22 -2 -35 -13 -28 -6 4 -8 3 -5 -3
4 -6 0 -19 -8 -29 -8 -10 -15 -27 -15 -36 0 -10 -5 -18 -11 -18 -6 0 -9 -6 -6
-14 3 -8 3 -16 -1 -18 -14 -6 -52 -66 -55 -88 -2 -12 -8 -25 -14 -28 -6 -4 -9
-15 -7 -25 1 -11 0 -16 -4 -13 -5 5 -28 -46 -35 -79 -2 -5 -6 -16 -10 -22 -5
-7 -5 -17 -2 -23 4 -6 -1 -7 -11 -3 -12 4 -15 2 -12 -8 3 -8 -1 -27 -9 -43
-12 -22 -12 -26 -1 -20 10 6 11 5 1 -7 -7 -9 -11 -52 -10 -117 1 -62 -2 -102
-8 -102 -7 0 -7 -3 0 -8 6 -4 10 -55 10 -117 0 -62 -4 -113 -10 -117 -7 -5 -7
-8 0 -8 6 0 9 -52 8 -140 0 -82 3 -140 8 -140 6 0 5 -9 -2 -21 -6 -13 -7 -19
-1 -15 9 5 13 -40 14 -156 0 -15 4 -25 9 -22 5 3 9 1 9 -5 0 -5 -4 -12 -9 -15
-10 -7 -9 -31 2 -42 4 -4 7 -22 7 -41 0 -18 5 -33 11 -33 5 0 9 -8 7 -17 -1
-10 1 -24 5 -30 5 -7 4 -13 -1 -13 -5 0 -7 -13 -4 -30 2 -16 8 -30 13 -30 5 0
9 -22 9 -50 0 -29 5 -50 11 -50 6 0 9 -12 8 -28 -2 -15 1 -34 6 -42 5 -8 11
-24 12 -35 4 -25 25 -68 38 -77 6 -5 4 -8 -5 -8 -9 0 -11 -3 -5 -8 17 -12 32
-46 29 -64 -1 -10 4 -18 11 -18 8 0 12 -8 10 -20 -2 -11 3 -27 11 -35 9 -8 12
-15 8 -15 -3 0 -1 -7 6 -15 6 -8 9 -19 5 -25 -3 -5 -1 -10 5 -10 6 0 8 -4 5
-10 -3 -6 1 -10 10 -10 9 0 13 -4 10 -10 -3 -5 -1 -10 5 -10 6 0 8 -4 5 -10
-3 -5 -2 -10 4 -10 6 0 13 -11 17 -25 3 -14 10 -25 16 -25 5 0 8 -6 6 -14 -2
-8 6 -22 17 -31 11 -9 13 -14 5 -10 -10 4 -9 2 2 -8 10 -8 15 -17 12 -20 -3
-3 4 -10 15 -17 12 -6 21 -20 21 -31 0 -11 4 -17 10 -14 5 3 10 1 10 -5 0 -6
7 -18 15 -27 8 -8 12 -19 9 -25 -4 -7 -2 -8 4 -4 7 4 12 4 12 -1 0 -14 47 -63
54 -56 3 3 6 -1 6 -10 0 -9 3 -17 8 -17 4 0 16 -14 27 -30 11 -16 26 -30 33
-30 6 0 12 -6 12 -13 0 -12 52 -67 64 -67 3 0 20 -13 38 -30 17 -16 35 -30 40
-30 5 0 7 -3 5 -7 -6 -10 19 -34 27 -26 3 4 6 0 6 -7 0 -7 3 -10 6 -7 4 4 14
-2 24 -13 9 -10 23 -20 31 -22 7 -2 26 -15 40 -30 14 -15 32 -28 40 -30 8 -2
22 -12 32 -22 11 -12 17 -14 17 -6 0 8 8 4 19 -8 10 -12 23 -22 30 -22 6 0 11
-5 11 -11 0 -5 5 -7 10 -4 6 3 13 -1 16 -9 3 -9 10 -14 14 -11 4 2 7 -18 7
-45 0 -27 6 -57 13 -65 9 -11 9 -15 1 -15 -8 0 -9 -6 -3 -17 11 -23 9 -444 -2
-462 -7 -10 -6 -12 4 -6 10 6 12 4 7 -9 -4 -10 -7 -20 -7 -22 0 -3 -3 -3 -8 0
-4 2 -7 -23 -6 -57 1 -34 -2 -67 -8 -74 -6 -7 -5 -14 2 -18 12 -7 -1 -22 -42
-49 -15 -10 -25 -22 -22 -27 3 -5 0 -9 -5 -9 -15 0 -51 -37 -43 -44 3 -3 -4
-6 -16 -6 -12 0 -23 -8 -27 -20 -3 -11 -11 -20 -16 -20 -5 0 -9 -5 -9 -11 0
-6 -7 -17 -16 -26 -8 -9 -13 -22 -10 -29 3 -9 0 -11 -11 -7 -11 4 -14 2 -9 -5
4 -7 2 -12 -3 -12 -6 0 -11 -7 -11 -15 0 -8 -4 -15 -9 -15 -5 0 -12 -11 -15
-25 -4 -14 -11 -23 -16 -20 -6 4 -7 -3 0 -19 7 -20 6 -24 -5 -19 -11 4 -15 -2
-15 -20 0 -14 -7 -28 -16 -31 -12 -5 -14 -9 -5 -20 9 -10 7 -17 -5 -26 -8 -8
-13 -22 -11 -32 3 -10 1 -16 -4 -12 -9 5 -11 0 -13 -28 -1 -7 -8 -19 -16 -26
-13 -12 -13 -13 0 -6 13 7 13 5 2 -8 -7 -8 -10 -23 -6 -32 4 -9 0 -18 -8 -21
-10 -4 -14 -19 -13 -45 1 -21 -2 -37 -7 -34 -7 5 -12 -21 -10 -56 0 -7 -5 -25
-12 -40 -6 -14 -11 -42 -11 -62 1 -22 -3 -38 -9 -38 -6 0 -5 -4 2 -9 11 -7 11
-9 0 -14 -11 -4 -14 -21 -13 -60 2 -47 0 -54 -14 -50 -11 4 -10 1 4 -10 11 -9
15 -17 9 -17 -14 0 -25 -48 -13 -56 5 -2 5 -15 1 -27 -4 -12 -7 -60 -6 -107 1
-53 -3 -88 -10 -92 -8 -6 -8 -8 1 -8 13 0 12 -18 -1 -39 -6 -9 -5 -12 2 -7 7
4 10 -1 9 -14 -1 -11 -6 -20 -12 -20 -7 0 -7 -3 0 -8 6 -4 11 -38 11 -77 1
-41 6 -71 13 -73 7 -2 8 -9 1 -22 -7 -13 -7 -21 0 -25 6 -4 10 -12 9 -18 -3
-24 1 -38 10 -33 5 4 8 -2 7 -11 -2 -10 1 -34 7 -53 9 -32 12 -50 16 -88 0 -7
5 -11 9 -8 4 2 8 -24 7 -59 0 -35 3 -61 7 -59 9 6 9 1 11 -66 1 -28 7 -50 16
-57 13 -10 13 -12 2 -13 -9 0 -10 -4 -4 -13 11 -13 27 -67 25 -79 -1 -5 6 -8
15 -9 11 0 13 -3 6 -6 -9 -3 -10 -10 -3 -22 5 -10 6 -22 2 -26 -4 -5 2 -5 12
-1 15 5 17 4 7 -7 -9 -11 -6 -21 11 -43 13 -16 16 -25 8 -20 -8 4 -7 1 4 -8
10 -8 15 -19 12 -24 -3 -5 1 -16 10 -23 8 -7 24 -29 34 -48 10 -20 27 -45 37
-56 10 -11 17 -28 15 -38 -2 -10 0 -16 5 -15 17 6 61 -52 56 -73 -4 -13 -1
-19 8 -17 8 2 13 -3 11 -10 -1 -8 2 -11 8 -7 5 3 10 1 10 -5 0 -6 4 -8 10 -5
5 3 10 -1 10 -9 0 -9 7 -16 16 -16 11 0 14 -5 10 -17 -4 -10 -4 -14 -1 -11 9
8 54 -34 48 -44 -2 -5 5 -8 17 -8 12 0 19 -4 15 -9 -3 -5 4 -12 15 -16 11 -3
20 -10 20 -15 0 -5 16 -17 35 -26 19 -9 35 -20 35 -25 0 -5 9 -9 20 -9 11 0
20 -4 20 -10 0 -5 11 -10 25 -10 14 0 25 -5 25 -11 0 -6 9 -9 20 -6 12 3 20 0
20 -7 0 -8 13 -13 31 -14 17 0 38 -7 47 -14 10 -8 13 -9 9 -1 -5 8 0 11 13 10
11 -1 19 -6 16 -12 -2 -7 9 -9 30 -7 35 4 48 -13 19 -24 -11 -5 -12 -11 -5
-24 7 -13 7 -21 0 -25 -6 -4 -8 -10 -5 -15 3 -4 -2 -11 -11 -14 -8 -3 -12 -11
-9 -16 10 -16 -14 -39 -36 -35 -11 2 -17 0 -14 -6 4 -5 690 -9 1825 -9 1596 0
1819 2 1814 15 -3 8 -9 14 -12 13 -26 -3 -32 3 -22 22 8 14 8 20 0 20 -7 0 -8
6 0 19 7 13 7 20 -1 23 -7 2 -7 12 0 31 6 15 7 27 3 27 -5 0 -8 11 -8 24 0 14
4 22 9 19 4 -3 7 3 5 13 -3 16 4 19 40 19 23 0 42 3 42 6 0 4 7 10 16 13 10 4
13 2 8 -7 -6 -9 -4 -9 7 -1 8 6 24 10 36 9 18 -1 20 1 11 12 -6 8 -7 13 -2 12
23 -4 45 2 39 11 -3 6 1 7 9 4 9 -3 16 -2 16 4 0 6 14 13 30 17 17 4 30 10 30
15 0 5 9 7 20 5 11 -2 20 1 20 7 0 6 7 5 17 -3 11 -9 14 -10 10 -2 -5 8 2 15
20 19 15 3 33 12 38 19 11 13 16 15 40 15 9 0 12 6 9 15 -5 11 -2 13 12 8 12
-4 15 -3 10 5 -4 7 -1 12 9 12 20 0 46 25 37 35 -4 5 2 5 13 1 11 -4 17 -4 13
-1 -7 8 93 111 104 107 4 -1 7 2 6 6 -3 9 87 103 93 98 2 -1 12 6 22 16 9 10
14 18 11 18 -3 0 12 16 33 36 21 20 37 43 35 51 -2 8 1 12 7 9 5 -4 12 3 16
14 3 11 11 20 17 20 6 0 8 3 5 6 -3 4 -1 16 5 28 7 11 11 24 10 29 -1 4 2 7 7
7 5 0 12 7 15 16 4 10 2 13 -7 9 -6 -4 -5 -1 4 7 9 7 15 21 13 31 -1 11 2 17
10 14 8 -3 11 5 10 24 -1 16 2 26 7 23 9 -5 11 1 12 48 1 16 6 28 12 28 6 0
10 15 10 33 -1 17 2 37 6 42 4 6 8 13 8 18 1 4 2 8 2 10 1 1 3 20 4 42 1 22 5
47 9 56 4 9 8 31 9 50 1 19 7 37 12 42 6 4 5 10 -4 16 -10 6 -10 10 -1 13 7 2
13 25 14 53 1 28 5 56 10 64 6 9 5 12 -2 7 -12 -7 -10 20 3 31 4 4 5 2 0 -6
-6 -10 -4 -12 4 -7 9 6 8 13 -6 29 -10 11 -12 17 -5 13 15 -9 13 -22 15 194 1
107 -2 178 -8 182 -6 5 -6 8 1 8 6 0 9 13 6 30 -3 19 -8 27 -16 23 -6 -4 -5 1
3 10 11 14 11 17 0 17 -11 0 -11 2 1 10 8 5 10 10 3 10 -7 0 -10 18 -9 50 2
41 0 50 -12 45 -11 -4 -12 -2 -4 8 9 10 8 17 0 25 -9 9 -9 12 1 12 11 0 11 3
1 15 -7 9 -10 18 -7 22 4 3 1 13 -5 21 -7 8 -13 30 -13 49 -1 19 -6 38 -11 41
-5 4 -9 14 -9 22 1 8 -5 28 -13 44 -9 19 -10 26 -2 21 8 -5 8 0 -1 16 -7 13
-12 27 -11 32 1 4 -2 7 -8 7 -5 0 -7 7 -4 15 4 8 1 15 -6 15 -7 0 -10 7 -6 15
3 8 1 15 -4 15 -6 0 -10 7 -10 15 0 8 -5 15 -11 15 -8 0 -8 5 1 15 10 12 8 16
-11 24 -13 5 -17 10 -10 10 11 1 12 4 4 12 -6 6 -9 18 -6 25 3 8 0 14 -7 14
-6 0 -8 5 -5 10 3 6 1 10 -5 10 -6 0 -9 4 -5 9 3 5 -2 16 -10 25 -10 9 -11 17
-5 21 6 4 8 11 4 16 -3 5 -9 7 -14 4 -5 -3 -7 3 -5 15 2 11 -1 19 -8 17 -6 -1
-11 3 -12 10 0 7 -5 17 -12 24 -6 6 -9 18 -6 25 3 8 1 14 -4 14 -10 0 -38 50
-35 63 1 4 -3 7 -8 7 -6 0 -10 7 -10 15 0 8 -4 15 -10 15 -5 0 -10 7 -10 16 0
8 -4 12 -10 9 -5 -3 -10 3 -10 14 0 12 -5 21 -11 21 -5 0 -7 5 -3 12 4 6 3 8
-3 5 -10 -7 -43 27 -43 44 0 6 -7 9 -15 5 -8 -3 -14 -2 -14 2 3 20 -3 32 -16
32 -8 0 -15 5 -15 11 0 5 -4 7 -10 4 -5 -3 -10 -1 -10 5 0 13 -30 45 -31 33
-1 -23 -22 49 -25 92 -3 27 -10 53 -17 57 -9 6 -9 8 0 8 7 0 10 6 8 13 -11 30
-13 67 -4 73 6 3 6 10 1 17 -11 13 -10 46 1 64 4 6 3 15 -3 18 -8 5 -7 12 2
23 10 12 10 14 1 8 -16 -9 -17 6 -1 22 7 7 8 12 2 12 -5 0 -10 9 -11 20 -1 13
2 18 10 13 7 -4 6 0 -2 10 -9 12 -10 17 -2 17 8 0 9 5 1 19 -6 12 -6 22 -1 25
5 3 7 16 3 28 -4 16 -2 19 9 13 12 -8 12 -6 0 8 -10 12 -11 24 -5 40 5 12 9
42 9 67 0 25 4 48 9 52 5 3 10 27 10 52 1 25 6 46 12 46 6 0 9 15 8 34 -2 22
4 42 16 57 11 12 20 16 20 9 0 -10 3 -10 15 0 8 6 19 9 25 5 6 -4 9 -3 8 2 -2
4 2 10 7 12 6 2 27 12 48 22 21 11 42 17 47 14 6 -4 7 1 3 11 -4 11 -2 15 4
11 11 -7 74 20 84 36 4 5 12 6 18 3 7 -5 10 -2 9 6 -2 7 3 12 11 10 7 -1 24 9
37 23 25 27 39 33 29 13 -4 -7 0 -5 8 5 8 9 20 17 27 17 7 0 11 3 7 6 -3 3 14
24 39 45 25 21 42 39 38 39 -4 0 5 9 20 21 14 11 26 26 26 34 0 7 7 15 15 19
8 3 15 13 15 21 0 10 5 13 12 9 6 -4 8 -3 4 4 -3 6 1 17 9 25 8 9 15 21 15 27
0 6 5 8 12 4 7 -4 8 -3 4 4 -4 6 2 20 14 32 11 11 18 20 15 20 -3 0 1 10 10
23 8 13 12 27 8 30 -3 4 -1 7 6 7 7 0 10 4 7 8 -3 5 4 23 15 41 11 18 15 30 9
26 -17 -10 -11 4 10 27 16 17 17 24 7 37 -9 12 -9 13 1 7 11 -7 13 -3 16 37 1
6 8 18 16 25 13 12 13 13 0 6 -13 -7 -13 -5 -2 8 7 8 9 24 5 33 -4 12 -3 16 4
12 6 -4 13 0 17 8 3 8 0 15 -7 15 -8 0 -8 3 -2 8 6 4 10 17 9 30 -1 12 3 22 9
22 5 0 7 9 4 20 -3 11 -2 20 1 20 4 0 7 18 8 40 1 24 -3 37 -9 33 -6 -4 -7 -1
-1 8 10 16 11 20 13 55 0 14 5 22 11 19 7 -4 7 2 1 18 -6 14 -7 28 -3 31 10
11 10 51 -1 58 -8 4 -5 13 6 26 9 10 17 23 17 28 0 5 -5 2 -11 -6 -7 -11 -8
-6 -4 19 5 23 3 36 -6 42 -11 7 -10 9 4 9 14 0 16 4 8 19 -8 15 -7 20 5 25 11
4 13 10 6 19 -11 14 -10 116 2 135 4 6 3 12 -2 12 -11 0 -9 51 3 69 5 9 4 12
-2 8 -7 -5 -11 9 -10 38 0 25 5 45 11 46 6 0 2 4 -9 9 -11 5 -15 9 -9 9 15 1
10 41 -7 52 -13 8 -5 13 15 10 5 -1 2 9 -7 23 -16 23 -16 26 1 35 10 7 12 11
4 11 -7 0 -10 5 -7 10 3 6 0 10 -7 10 -8 0 -9 3 -3 8 9 6 12 26 5 35 -8 10 -6
37 2 37 6 0 3 9 -7 20 -14 15 -15 20 -4 20 10 1 9 4 -4 14 -12 10 -15 16 -7
21 8 5 8 10 0 20 -8 10 -7 14 2 18 10 4 10 6 1 6 -7 1 -13 8 -13 16 0 8 -5 15
-11 15 -5 0 -7 6 -3 12 12 18 12 48 1 48 -5 0 -7 6 -5 12 3 7 -2 19 -10 27
-10 11 -11 16 -3 19 8 3 9 8 2 16 -6 7 -12 22 -14 34 -2 12 -6 24 -9 28 -4 3
-4 12 -1 20 3 8 0 14 -7 14 -6 0 -9 8 -5 19 3 10 -1 23 -8 29 -7 6 -12 25 -11
41 1 20 -2 28 -10 25 -8 -3 -12 3 -11 18 1 13 -2 26 -7 29 -5 3 -10 21 -11 40
-1 19 -7 39 -13 45 -6 7 -9 26 -8 43 1 17 -2 28 -7 25 -8 -4 -14 33 -10 59 0
4 -7 7 -16 7 -15 0 -16 2 -3 10 11 7 11 10 2 10 -7 0 -10 5 -6 12 4 6 -1 17
-11 25 -14 9 -15 13 -4 13 11 1 11 3 -3 13 -9 7 -18 24 -20 37 -1 14 -10 32
-19 40 -9 8 -14 20 -12 27 2 6 -5 18 -16 25 -12 8 -18 18 -14 21 3 4 2 7 -4 7
-5 0 -15 12 -21 26 -7 15 -17 22 -24 18 -7 -5 -9 -2 -5 9 3 9 -1 18 -10 21 -9
4 -13 9 -10 12 8 8 -18 34 -35 34 -10 0 -9 3 2 10 10 6 11 10 3 10 -7 0 -13 4
-13 10 0 12 -101 113 -107 106 -3 -3 -21 10 -39 29 -19 19 -38 35 -44 35 -5 0
-10 5 -10 11 0 5 -4 8 -9 4 -6 -3 -15 4 -21 15 -6 11 -14 18 -19 16 -4 -3 -13
4 -21 14 -8 10 -17 17 -22 14 -4 -3 -8 0 -8 5 0 6 -6 11 -14 11 -7 0 -21 10
-30 23 -9 12 -14 15 -9 7 4 -8 -12 0 -35 18 -23 19 -42 31 -42 27 0 -4 -7 -1
-17 6 -9 8 -24 14 -33 14 -9 0 -23 5 -31 11 -8 6 -22 10 -31 9 -9 -2 -22 3
-29 11 -6 8 -15 11 -20 8 -5 -2 -19 2 -32 11 -13 8 -27 12 -30 8 -4 -3 -7 1
-7 10 0 9 -5 17 -11 17 -8 0 -8 4 0 14 9 11 9 15 -1 20 -10 5 -10 7 -1 12 8 4
9 13 3 30 -7 17 -6 24 3 24 9 0 9 2 -1 8 -7 5 -13 32 -13 65 -1 31 -6 57 -11
57 -5 0 -7 4 -4 9 4 5 0 12 -6 14 -10 4 -10 6 0 6 7 1 10 6 6 12 -4 7 -7 32
-7 58 0 25 -4 49 -10 53 -6 3 -10 23 -9 44 1 21 -3 41 -8 44 -5 3 -10 22 -12
43 -1 20 -6 37 -10 37 -4 0 -8 9 -8 20 0 11 -5 20 -11 20 -6 0 -9 9 -6 20 3
13 0 20 -9 20 -8 0 -14 9 -14 20 0 11 -5 20 -11 20 -5 0 -8 4 -5 9 3 5 -1 14
-8 21 -8 6 -18 25 -21 42 -5 23 -9 27 -16 17 -7 -11 -9 -11 -9 2 0 8 -22 39
-49 68 -27 29 -52 59 -55 67 -3 8 -14 14 -25 14 -11 0 -25 8 -30 18 -6 9 -11
13 -11 7 0 -5 -7 1 -16 13 -8 12 -22 22 -30 22 -8 0 -14 4 -14 9 0 5 -9 11
-20 14 -11 3 -20 0 -20 -6 0 -6 -7 -2 -16 9 -8 10 -13 14 -10 8z m-4789 -3233
c3 -5 2 -12 -3 -15 -5 -3 -9 1 -9 9 0 17 3 19 12 6z m3334 -741 c7 0 9 -5 6
-10 -3 -6 4 -14 17 -19 13 -6 16 -10 8 -11 -13 0 -13 -2 0 -9 8 -6 18 -7 22
-5 4 3 8 -2 8 -11 0 -9 5 -13 10 -10 6 3 10 1 10 -6 0 -7 3 -9 6 -6 4 4 14 -1
23 -11 9 -10 28 -23 44 -30 15 -6 27 -16 27 -22 0 -6 4 -9 9 -6 5 3 11 -1 15
-9 4 -11 11 -13 31 -5 18 7 24 6 22 -3 -1 -7 11 -12 34 -12 20 0 44 -7 55 -15
16 -13 17 -13 9 0 -7 12 -6 13 6 5 8 -6 33 -10 57 -10 23 1 42 -3 42 -9 0 -6
5 -4 10 4 8 13 10 13 10 0 0 -11 3 -11 12 -2 14 14 32 16 24 4 -6 -10 30 -9
40 1 4 4 14 1 22 -6 13 -9 14 -9 8 1 -4 6 -2 12 3 12 6 0 11 -5 11 -11 0 -5 5
-7 11 -3 6 3 36 8 67 9 32 2 65 4 75 4 12 1 16 5 11 14 -6 9 -5 9 8 0 8 -7 18
-10 21 -6 4 3 19 8 34 9 15 2 29 8 31 14 2 5 8 10 13 10 6 0 7 -6 3 -12 -5 -9
-2 -9 9 1 9 7 17 10 17 5 0 -4 7 1 15 12 11 14 14 15 15 4 0 -13 1 -13 10 0 5
8 21 16 34 17 24 2 25 0 13 -20 -8 -12 -13 -34 -12 -49 0 -15 -2 -26 -5 -26
-17 2 -21 -4 -11 -16 9 -11 8 -15 -4 -20 -13 -5 -14 -10 -4 -27 8 -15 8 -19 0
-15 -7 5 -11 -6 -12 -31 -1 -21 -2 -42 -4 -48 -1 -5 -3 -16 -3 -23 -1 -7 -5
-11 -9 -9 -5 3 -6 -24 -5 -60 2 -40 0 -63 -6 -59 -5 3 -8 -6 -6 -19 1 -14 -1
-25 -4 -25 -4 0 -5 -54 -2 -120 3 -66 3 -120 0 -120 -3 0 -5 -11 -5 -25 0 -14
5 -25 10 -25 6 0 3 -5 -5 -10 -13 -9 -13 -11 0 -20 14 -9 7 -15 -14 -11 -5 1
-5 -4 1 -11 6 -7 10 -46 9 -86 0 -42 3 -72 9 -72 6 0 1 -7 -9 -15 -12 -9 -15
-15 -7 -15 9 0 12 -13 9 -45 -2 -25 -1 -45 2 -45 3 0 4 -65 3 -145 -2 -88 1
-145 7 -145 6 0 10 -5 10 -11 0 -5 -4 -8 -8 -5 -5 3 -9 -1 -9 -9 0 -8 4 -12 9
-8 6 3 8 -14 7 -39 -2 -24 -1 -48 2 -53 3 -6 4 -20 3 -32 0 -13 2 -23 5 -23 4
0 6 -12 5 -27 -2 -45 -4 -49 -12 -38 -11 15 -47 42 -40 30 4 -6 -2 -11 -12
-11 -10 0 -16 4 -14 8 3 4 -3 8 -14 8 -10 0 -22 3 -26 7 -10 11 -37 12 -30 2
3 -5 0 -9 -5 -9 -6 0 -11 5 -11 11 0 8 -6 7 -17 -2 -11 -10 -14 -10 -9 -1 5 8
1 11 -16 9 -12 -2 -37 -1 -55 3 -18 5 -33 4 -33 0 0 -4 -18 -4 -40 0 -22 4
-40 4 -40 1 0 -4 -19 -5 -42 -3 -32 2 -39 1 -28 -7 9 -7 10 -11 3 -11 -6 0
-15 5 -19 11 -4 7 -10 7 -16 1 -6 -6 -17 -8 -26 -5 -9 4 -13 2 -9 -4 4 -6 -3
-8 -18 -5 -14 2 -32 -1 -40 -8 -12 -10 -18 -10 -32 1 -14 12 -16 12 -8 0 6
-11 4 -13 -9 -8 -10 4 -15 3 -11 -3 3 -6 3 -10 -2 -11 -33 -3 -59 -11 -61 -20
-3 -6 -9 -6 -18 2 -11 9 -15 8 -20 -4 -3 -9 -19 -19 -35 -22 -16 -4 -29 -11
-29 -16 0 -5 -7 -9 -15 -9 -8 0 -23 -9 -32 -20 -10 -11 -23 -20 -30 -20 -7 0
-13 -5 -13 -10 0 -6 -3 -9 -7 -8 -5 2 -18 -7 -31 -20 -13 -13 -30 -21 -38 -18
-9 3 -12 1 -9 -4 3 -6 -1 -13 -9 -16 -9 -3 -16 -13 -16 -21 0 -8 -4 -11 -10
-8 -5 3 -10 1 -10 -5 0 -12 -60 -70 -72 -70 -5 0 -8 8 -8 17 0 9 -3 14 -6 10
-8 -7 -34 17 -34 32 0 6 -3 10 -7 10 -20 -3 -34 2 -29 10 3 5 -2 15 -11 22
-14 12 -16 12 -9 -1 6 -11 4 -11 -6 1 -7 9 -23 19 -36 23 -12 4 -22 12 -22 18
0 6 -3 8 -7 5 -3 -4 -12 1 -20 11 -9 10 -11 11 -7 2 7 -13 5 -13 -9 -2 -9 8
-20 11 -26 8 -5 -3 -11 -1 -13 4 -2 6 -13 12 -26 13 -12 0 -22 6 -22 12 0 6
-3 7 -8 0 -4 -5 -15 -11 -25 -11 -12 -1 -15 2 -8 10 7 8 -1 11 -30 10 -21 0
-39 3 -39 8 0 5 -9 4 -20 -2 -13 -7 -20 -7 -20 -1 0 7 -9 7 -25 1 -16 -6 -25
-6 -25 1 0 6 -7 6 -19 -1 -14 -7 -22 -7 -26 0 -5 8 -12 7 -22 -1 -12 -10 -16
-10 -24 2 -8 12 -10 12 -18 0 -8 -13 -12 -13 -27 0 -10 8 -15 9 -12 4 4 -6 -2
-17 -14 -24 -11 -7 -17 -8 -13 -2 8 13 -5 14 -25 1 -9 -5 -19 -5 -26 1 -8 6
-13 4 -17 -10 -3 -14 -11 -17 -31 -14 -15 3 -26 1 -26 -6 0 -5 -7 -8 -15 -5
-8 4 -15 1 -15 -7 0 -7 -3 -9 -7 -6 -3 4 -15 -1 -26 -10 -15 -13 -18 -14 -12
-3 8 13 7 13 -8 1 -9 -7 -17 -10 -17 -6 0 4 -9 -3 -21 -16 -11 -13 -17 -17
-13 -9 7 13 5 13 -9 1 -9 -7 -15 -17 -12 -21 3 -5 -5 -6 -17 -2 -16 4 -20 2
-15 -10 8 -22 -18 -17 -42 9 -11 12 -16 25 -11 33 4 7 4 26 0 41 -5 17 -5 29
1 29 5 0 9 9 9 21 0 11 4 17 10 14 6 -4 7 2 1 18 -6 14 -6 29 0 38 13 20 11
31 -3 23 -10 -5 -10 -4 -1 6 9 10 9 18 1 34 -10 19 -9 19 5 8 13 -11 15 -10
10 7 -3 12 -10 18 -17 15 -6 -3 -4 0 4 8 16 14 18 46 5 68 -6 9 -4 11 5 5 10
-6 12 -4 7 8 -4 10 -1 17 6 17 7 0 4 5 -5 11 -9 5 -15 16 -12 24 4 8 11 12 17
8 6 -4 7 -1 2 8 -12 19 -13 121 -2 137 6 8 5 12 -2 12 -8 0 -9 5 -3 16 5 9 6
31 2 50 -5 20 -3 37 3 43 8 8 7 11 -1 11 -9 0 -10 5 -4 18 5 9 8 26 5 37 -2
11 -5 29 -7 41 -2 11 -7 27 -11 34 -5 9 -4 11 4 6 9 -6 11 3 7 33 -3 23 -1 41
5 41 6 0 6 7 1 18 -5 9 -9 54 -8 98 1 69 -1 81 -14 76 -13 -5 -13 -4 -1 12 12
14 13 21 2 38 -7 11 -8 17 -3 14 5 -3 10 5 10 19 0 14 -5 22 -10 19 -6 -4 -5
3 1 14 8 14 8 23 1 27 -8 5 -7 11 1 21 6 8 7 14 2 14 -8 0 -11 13 -17 88 -2
17 -6 35 -9 39 -10 10 -8 25 2 18 6 -3 6 6 1 25 -5 18 -5 32 1 36 6 4 6 10 -1
18 -5 7 -12 27 -14 43 -3 29 -2 30 38 29 23 -1 44 -5 48 -11 5 -6 8 -4 8 5 0
13 1 13 10 0 8 -12 11 -13 19 -1 5 7 11 9 14 4 3 -5 28 -8 56 -8 28 0 51 -4
51 -9 0 -5 7 -1 16 10 8 10 13 14 10 8 -3 -7 5 -14 19 -16 13 -3 22 -1 19 4
-3 5 16 7 45 5 29 -3 51 -1 51 5 0 5 5 6 10 3 6 -4 17 -1 25 5 12 10 18 10 30
0 12 -10 15 -9 15 5 0 14 3 15 15 5 11 -9 15 -9 15 -1 0 7 4 10 9 7 9 -6 64 9
94 25 10 5 22 7 27 4 6 -4 10 -2 10 3 0 6 13 9 29 8 16 -1 29 2 28 8 -1 6 5
11 13 12 32 3 59 17 53 27 -4 6 0 8 10 4 12 -4 17 -1 17 10 0 9 3 13 6 10 8
-8 66 23 77 41 5 7 12 10 17 7 5 -3 16 5 24 17 9 12 16 19 16 14 0 -4 16 9 35
29 20 20 40 33 47 29 7 -4 8 -3 4 5 -4 6 0 14 8 17 9 3 13 11 9 18 -4 6 2 4
12 -4 11 -9 16 -10 11 -2 -8 14 18 45 29 34 4 -4 6 -2 4 3 -4 16 12 45 22 39
5 -3 12 2 15 11 6 14 10 13 29 -9 12 -14 28 -26 34 -26z"/>
</g>
</svg>
